<svg width="6" height="10" viewBox="0 0 6 10" fill="none" xmlns="http://www.w3.org/2000/svg">
<path d="M0.119995 2.79988H1.4688C1.52744 1.93977 2.10736 1.39895 3.00656 1.39895C3.89925 1.39895 4.47917 1.93977 4.47917 2.67608C4.47917 3.34722 4.19898 3.72515 3.41055 4.20081C2.51787 4.73512 2.12039 5.32155 2.15297 6.2403L2.15949 6.76158H3.50829V6.36411C3.50829 5.69296 3.74938 5.34762 4.58994 4.85241C5.45005 4.33765 5.95829 3.62741 5.95829 2.61743C5.95829 1.22302 4.79845 0.200012 3.07824 0.200012C1.18861 0.200012 0.178639 1.32076 0.119995 2.79988ZM2.91534 9.82408C3.51481 9.82408 3.9188 9.43312 3.9188 8.8532C3.9188 8.26677 3.51481 7.87581 2.91534 7.87581C2.31587 7.87581 1.90537 8.26677 1.90537 8.8532C1.90537 9.43312 2.31587 9.82408 2.91534 9.82408Z" fill="#EBE7E4" fill-opacity="0.7"/>
</svg>
